<?xml version="1.0" encoding="utf-8"?><!--Generator: Adobe Illustrator 25.4.1, SVG Export Plug-In . SVG Version: 6.00 Build 0)--><svg version="1.1" id="Model1" xmlns="http://www.w3.org/2000/svg" xmlns:xlink="http://www.w3.org/1999/xlink" x="0px" y="0px" viewBox="0 0 1024 600" style="enable-background:new 0 0 1024 600" xml:space="preserve"><style>.st0{fill:#7dceea}.st1{opacity:.8}.st2{fill:#276c93}.st3{fill:#54bbd3}.st4{fill:#fff}.st5{fill:#56b75f}.st6{fill:#3f2e15}.st7{fill:#0093ba}.st8{fill:#90b7bb}.st9{fill:#020303}.st10{fill:#82634e}.st11{fill:#827575}.st12{fill:#524949}.st13{fill:#4b876b}.st14{fill:#a08d8d}.st15{fill:#006837}.st16{fill:#c69c6d}.st17{fill:#e5ccb1}.st18{fill:#009245}.st19{fill:#f7931e}.st20{fill:#fbb03b}.st21{fill:#fcee21}.st22{opacity:.7}.st23{fill:#912739}.st24{fill:#f2e9c7}.st25{fill:none;stroke:#54bbd3;stroke-width:1.5px;stroke-miterlimit:10}.st26{fill:none;stroke:#000;stroke-width:2px;stroke-miterlimit:10}.st27{fill:none;stroke:#ed1c24;stroke-width:4px;stroke-linecap:round;stroke-miterlimit:10}.st28{fill:none;stroke:#ed1c24;stroke-width:2px;stroke-linecap:round;stroke-miterlimit:10}.st29{opacity:.7;fill:#ed1c24}.st30{fill:none}.st31{fill:#fcfcfc}.st32{font-family:RobotoCondensed-Regular}.st33{font-size:20px}.st34{font-size:36px}.st35{fill:none;stroke:#f7931e;stroke-width:1.5px;stroke-miterlimit:10}.st36{fill:none;stroke:#fbb03b;stroke-width:1.5px;stroke-miterlimit:10}.st37{fill:#ed1c24}.st38{letter-spacing:-3px}.st39{font-size:31px}.st40{font-family:RobotoCondensed-Bold}.st41{font-size:10px}.st42{letter-spacing:-1px}.st43{letter-spacing:3px}.st44{font-size:35.4977px}.st45{font-size:29.4309px}</style><rect id="background_00000038401811282542080710000008515054235781393335_" x="-0.04" y="0.05" class="st0" width="1024.04" height="599.87"/><g id="arrowA"><g id="arrowA-max" class="st1"><polygon id="arrow-albedo-high3" class="st2" points="119.16,181.16 164.61,148.81 205.67,181.16 205.67,445.68 119.16,445.68 		
			"/><polygon id="arrow-albedo-high2" class="st3" points="127.33,184.66 164.41,154.91 197.94,189.31 201.24,442.38 123.17,439.58 		
			"/><polygon id="arrow-albedo-high1" class="st4" points="132.79,191.28 161.33,169.51 187.24,194.66 189.19,434.64 136.71,433.01 		
			"/></g><g id="arrowA-min" class="st1"><polygon id="arrow-albedo-low3" class="st2" points="119.16,451.96 164.61,419.61 205.67,451.96 205.67,445.68 119.16,445.68 		
			"/><polygon id="arrow-albedo-low2" class="st3" points="127.33,455.46 164.41,425.71 197.94,460.11 201.24,442.38 123.17,439.58 		
			"/><polygon id="arrow-albedo-low1" class="st4" points="132.79,462.08 161.33,440.31 187.24,465.46 189.19,434.64 136.71,433.01 		
			"/></g></g><g id="landscape_00000060724326223609926360000001580919423344060067_"><path class="st5" d="M1024,490.6c-167.67-21.25-338.56-32.2-512-32.2c-173.46,0-344.36,15.03-512.05,36.29l0.01,105.18L1024,600
		L1024,490.6z"/><polygon class="st6" points="51.17,470.62 118.95,438.95 129.26,427.9 178.62,412.43 188.93,399.9 229.45,403.59 244.92,418.32 
		258.91,408.74 267.02,394.01 289.85,408.01 307.53,398.43 323.74,413.16 395.94,371.91 406.99,374.12 433.48,410.22 483.6,437.47 
		532.22,456.63 549.9,472.84 488.8,477.1 309.74,479.47 104.21,490.52 39.39,494.2 43.81,474.31 	"/><path class="st7" d="M1024.02,490.48C751.39,454.91,512,458.4,512,458.4l39.07,21.9l21.17,1.47l-8.09,1.12l-2.79,2.23l3.07,2.79
		l8.51,2.35l34.16,24.84l-21.86,20.49l47.82,40.99L1024,600C1024,600,1024,490.6,1024.02,490.48z"/><polygon class="st8" points="261.62,492.94 261.89,493.05 261.89,492.77 	"/><polygon class="st9" points="298.41,435.91 388.52,439.85 312.69,480.2 	"/><polygon class="st10" points="367.94,448.52 409.93,430.84 415.83,424.21 435.72,445.58 491.7,459.57 517.49,453.68 542.53,442.63 
		555.06,450 585.26,467.68 603.68,480.94 551.37,483.15 517.49,477.99 410.67,480.94 312.69,480.2 338.48,458.84 	"/><polygon class="st10" points="43.81,474.31 96.85,482.66 0,494.69 0.01,494.69 	"/><polygon class="st10" points="129.26,427.9 127.56,447.52 118.95,438.95 	"/><polygon class="st11" points="84.57,455.33 119.41,458.92 118.95,438.95 	"/><polygon class="st12" points="178.62,412.43 186.43,402.89 186.97,427.39 	"/><polygon class="st9" points="164.07,438.12 186.97,427.39 202.26,448.63 	"/><polygon class="st13" points="338.48,458.84 378.7,480.17 312.69,480.2 	"/><polygon class="st13" points="435.72,445.58 383.5,462.65 517.49,477.99 	"/><polygon class="st13" points="542.53,442.63 537.46,465.49 491.7,459.57 	"/><polygon class="st12" points="542.53,442.63 573.52,474.81 585.26,467.68 	"/><polygon class="st13" points="411.46,472.78 517.49,477.99 378.7,480.17 	"/><polygon class="st11" points="244.92,418.32 277.55,441.78 258.91,408.74 	"/><polygon class="st9" points="127.56,447.52 312.69,480.2 96.85,482.66 	"/><polygon class="st12" points="183.65,486.77 -0.03,508.94 0.02,494.69 41.1,485.6 	"/><polygon class="st13" points="353.26,480.36 607.1,515.11 572.94,490.26 	"/><polygon class="st14" points="120,494.25 291.71,499.98 353.26,480.36 283.26,480.36 148.62,486.6 	"/><polygon class="st11" points="242.41,429.13 202.26,448.63 277.26,473.96 	"/><polyline class="st11" points="361.26,411.47 324.15,437.96 323.74,413.18 361.26,411.47 	"/><polygon class="st11" points="433.48,410.22 435.72,445.59 472.01,431.78 	"/><polygon class="st6" points="374.29,445.7 378.7,480.17 338.48,458.84 	"/><polygon class="st15" points="294.7,457.6 289.82,452.78 286.71,455.57 289.59,460.41 289.11,464.21 290.57,464.07 290.36,460.18 	
		"/><polygon class="st15" points="280.34,451.52 278.22,446.56 276.41,450.31 277.85,454.4 277.62,456.31 278.51,456.23 278.43,454.24 
			"/><polygon class="st15" points="287.21,465.52 284.48,456.89 283.18,465.69 284.04,466.07 283.77,468.3 284.82,468.21 284.73,465.89 
			"/><g><polygon class="st10" points="387.46,495.53 376.22,492.55 379.68,498.7 379.39,509.85 370.84,511.77 382.08,514.75 
			390.64,512.83 390.92,501.68 		"/><polygon class="st16" points="382.08,514.75 370.84,511.77 370.84,499.57 382.08,502.55 		"/><polygon class="st17" points="387.46,495.53 376.22,492.55 370.84,499.57 382.08,502.55 		"/></g><g><polygon class="st10" points="354.86,490.66 343.62,487.68 347.08,493.83 346.79,504.97 338.24,506.89 349.48,509.88 
			358.04,507.96 358.32,496.81 		"/><polygon class="st16" points="349.48,509.88 338.24,506.89 338.24,494.69 349.48,497.68 		"/><polygon class="st17" points="354.86,490.66 343.62,487.68 338.24,494.69 349.48,497.68 		"/></g><g><polygon class="st10" points="363.7,499.03 348.24,494.93 353,503.39 352.6,518.71 340.84,521.36 356.3,525.46 368.06,522.82 
			368.45,507.49 		"/><polygon class="st16" points="356.3,525.46 340.84,521.36 340.84,504.58 356.3,508.68 		"/><polygon class="st17" points="363.7,499.03 348.24,494.93 340.84,504.58 356.3,508.68 		"/></g><polygon class="st15" points="290.74,495.41 273.56,478.45 262.63,488.25 272.75,505.29 271.06,518.64 276.2,518.16 275.46,504.48 
			"/><polygon class="st18" points="273.56,478.45 262.63,488.25 272.75,505.29 270.57,489.87 	"/><polygon class="st15" points="372.17,485.62 363.78,477.34 358.44,482.12 363.39,490.44 362.56,496.97 365.07,496.73 
		364.71,490.05 	"/><polygon class="st18" points="363.78,477.34 358.44,482.12 363.39,490.44 	"/><polygon class="st15" points="429.37,514.65 430.63,487.69 413.89,477.06 400.77,488.81 401.15,512.12 411.68,513.38 
		410.89,525.28 417.05,524.7 416.73,512.54 	"/><polygon class="st18" points="412.58,490.56 413.89,477.06 400.77,488.81 401.15,512.12 411.68,513.38 416.73,512.54 	"/><polygon class="st15" points="266.15,504.01 258.95,481.25 255.54,504.45 257.8,505.45 257.08,511.34 259.85,511.1 259.6,504.97 	
		"/><polygon class="st18" points="258.95,481.25 255.54,504.45 257.8,505.45 259.26,503.82 	"/><polygon class="st15" points="258.87,495.32 249.26,472.85 241.04,489.85 247.57,508.38 246.51,517.03 250.57,516.68 
		250.22,507.68 	"/><polygon class="st18" points="249.26,472.85 241.04,489.85 247.57,508.38 	"/></g><g id="sun_00000170986788763759891680000002898616737021831582_"><g id="sun-max"><polygon class="st19" points="157.26,72 120.83,139.04 72,157.26 31.19,147.79 -13.26,72 4.96,18.07 72,-13.26 110.43,-4.13 
			143.05,26.09 		"/><polygon class="st20" points="97.48,142.97 31.41,147.74 4.39,110.2 -2.43,62.97 36.43,5.79 89.13,-3.74 139.35,21.05 
			146.43,98.32 136.42,123.59 		"/><polygon class="st21" points="139.35,72 132.69,101.25 122.37,116.71 96.65,134.7 72,139.35 34.62,128.04 12.86,104.25 4.65,72 
			9.85,45.99 21.63,27.29 39.18,13.17 72,4.65 103.29,12.34 133.6,44.71 		"/></g><g id="sun-min"><polygon class="st19" points="117.57,72 98.1,107.83 72,117.57 50.19,112.51 26.43,72 36.17,43.18 72,26.43 92.54,31.31 
			109.97,47.46 		"/><polygon class="st20" points="85.62,109.93 50.31,112.48 35.86,92.42 32.22,67.17 52.99,36.61 81.16,31.52 107.99,44.77 
			111.78,86.07 106.43,99.57 		"/><polygon class="st21" points="108,72 104.44,87.63 98.92,95.9 85.17,105.51 72,108 52.02,101.95 40.39,89.24 36,72 38.78,58.1 
			45.08,48.1 54.46,40.56 72,36 88.73,40.12 104.92,57.42 		"/></g><circle id="sun-anchor" class="st21" cx="72" cy="72" r="0.88"/></g><g id="ice_00000050630833059374492350000007337285116764179125_"><g id="ice-max_00000165233630489159732480000005667220876178467466_"><polygon id="ice-max09_00000105391654271036457280000008333962478253754753_" class="st4" points="728.22,493.62 1046.78,563.47 
			1083.75,608.45 1032.61,645.42 784.89,630.02 616.05,657.13 514.38,608.45 		"/><polygon id="ice-max08_00000164477680188163136960000006536422744375140014_" class="st4" points="557.51,459.94 776.63,467.92 
			1043.7,493.83 1084.37,573.94 1013.5,593.04 614.6,529.68 560.59,502.46 		"/><polygon id="ice-max07_00000175294039749048334230000010948527047853552271_" class="st4" points="515.62,449.23 543.93,443.23 
			739.17,541.49 757.9,588.3 607.71,619.17 415.94,564.11 413.09,400.81 		"/><polygon id="ice-max06_00000000914780043246524320000015864540711088442287_" class="st4" points="415.83,424.23 434.45,490.09 
			413.89,477.06 373.2,493.33 		"/><polygon id="ice-max05_00000022531522451792037120000000538681991464378501_" class="st4" points="395.94,371.93 433.48,410.23 
			669.42,586.27 595.84,618.09 282.11,552.96 368.45,507.49 309.46,419.21 		"/><polygon id="ice-max04_00000111890008247274885730000009898073636058319513_" class="st4" points="307.53,398.45 451.16,522.63 
			348.24,494.93 312.94,543.51 277.97,413.63 		"/><polygon id="ice-max03_00000093140753493284997810000008510408998125560743_" class="st4" points="267.02,394.03 336.36,436.34 
			340.84,504.58 435.07,583.72 317.57,652.71 183.04,609.38 258.87,495.32 249.26,472.85 258.91,408.74 		"/><polygon id="ice-max02_00000077321557480988339470000012466301699804031107_" class="st4" points="140.52,458.38 109.26,568.52 
			122.66,634.75 223.5,641.45 287.5,604.98 253.8,524.65 241.04,489.85 269.02,438.57 229.45,403.6 188.93,399.92 		"/><polygon id="ice-max01_00000094597681772483187550000007836381133929281713_" class="st4" points="178.62,412.44 129.26,427.9 
			118.95,438.95 -75.97,530.28 22.85,655.61 120.47,644.77 256.24,577.68 217.43,455.03 191.4,435.5 		"/></g><g id="ice-min_00000060731945844245617770000016579860752390032548_"><polygon id="ice-min09_00000060012118687693072130000017425758751409985413_" class="st4" points="735.74,503.37 739.86,504.23 
			741.09,504.9 741.96,505.95 740.21,506.05 736.39,505.65 732.3,505.13 		"/><polygon id="ice-min08_00000018926575752157034410000013291011816299079583_" class="st4" points="674.21,473.82 678.84,473.56 
			683.98,475.36 686.04,478.19 681.67,478.7 674.73,477.93 668.55,477.42 		"/><polygon id="ice-min07_00000168835487023334439360000010095928050797903032_" class="st4" points="542.53,442.63 543.93,443.23 
			546.3,444.51 546.48,446.69 543.39,444.69 541.93,444.33 535.38,445.06 		"/><polygon id="ice-min06_00000090255580392416616330000004730018834224673922_" class="st4" points="415.83,424.23 419.73,428.27 
			416.3,428.02 413.23,427.07 		"/><polygon id="ice-min05_00000176736616977211666280000018120043977166111640_" class="st4" points="395.94,371.93 401.92,378.69 
			402.95,384.86 398.33,382.8 395.24,381.77 391.13,379.2 385.99,377.15 		"/><polygon id="ice-min04_00000149346728612173455100000004287410781826923657_" class="st4" points="307.53,398.45 308.57,399.32 
			308.84,400.2 306.57,400.09 305.51,399.54 		"/><polygon id="ice-min03_00000132771014216759154790000017203336625612437133_" class="st4" points="267.02,394.03 267.95,394.58 
			269.74,395.59 271.24,397.66 272.73,399.36 270.6,398.94 267.84,398.3 265.82,397.89 265.82,396.27 		"/><polygon id="ice-min02_00000173871017669662273560000014264160349682056381_" class="st4" points="186.43,402.91 186.63,414.16 
			187.17,412.94 187.58,410.31 189.6,407.41 190.14,406.47 191.29,404.31 191.76,402.02 191.48,400 188.93,399.92 		"/><polygon id="ice-min01_00000075881020584636171510000013225369157862309531_" class="st4" points="178.62,412.44 147.03,422.33 
			148.61,422.33 152.37,421.14 163.84,417.78 166.39,416.72 171.45,415.57 172.87,415.24 179.08,413.21 		"/></g></g><g id="arrowT"><g id="arrowT-min" class="st22"><path id="arrow-T-low3" class="st23" d="M452.24,492.37l45.45-32.35l41.05,32.35v6.02c0,0-29.73-6.94-46.85-0.18
			c-17.12,6.76-39.65,0.18-39.65,0.18V492.37z"/><path id="arrow-T-low2" class="st19" d="M527.4,490.39l-29.72-20.37l-34.01,24.21v6.39c8.02,1.01,18.91,1.28,28.21-2.4
			c10.35-4.09,25.3-3.17,35.51-1.8V490.39z"/><path id="arrow-T-low1" class="st24" d="M519.88,495.24l-22.2-15.22l-26.85,19.11v2.07c6.72,0.26,14.3-0.32,21.05-2.99
			c8.02-3.17,18.8-3.32,27.99-2.6V495.24z"/></g><g id="arrowT-max" class="st22"><path id="arrow-T-high3" class="st23" d="M452.24,226.81l45.45-32.35l41.05,32.35v271.59c0,0-29.73-6.94-46.85-0.18
			c-17.12,6.76-39.65,0.18-39.65,0.18V226.81z"/><path id="arrow-T-high2" class="st19" d="M527.4,224.83l-29.72-20.37l-34.01,24.21v271.95c8.02,1.01,18.91,1.28,28.21-2.4
			c10.35-4.09,25.3-3.17,35.51-1.8V224.83z"/><path id="arrow-T-high1" class="st24" d="M519.88,229.68l-22.2-15.22l-26.85,19.11V501.2c6.72,0.26,14.3-0.32,21.05-2.99
			c8.02-3.17,18.8-3.32,27.99-2.6V229.68z"/></g></g><g id="arrowL"><g id="arrowL-max_00000075863110078245095370000011048954444230595747_" class="st1"><polygon id="arrow-sun-high3" class="st19" points="103.36,485.79 57.91,518.14 16.86,485.79 16.86,180.7 103.36,180.7 		"/><polygon id="arrow-sun-high2" class="st20" points="95.2,482.29 58.12,512.04 24.59,477.64 21.29,180.7 99.36,180.7 		"/><polygon id="arrow-sun-high1" class="st21" points="89.74,475.67 61.2,497.43 35.28,472.29 33.34,180.7 85.82,180.7 		"/></g><g id="arrowL-min_00000015354913120132282370000002250903351234199462_" class="st1"><polygon id="arrow-sun-high3_00000168099686311007476050000014762179975126629517_" class="st19" points="103.36,182.78 
			57.91,196.19 16.86,182.78 16.86,180.7 103.36,180.7 		"/><polygon id="arrow-sun-high2_00000091730465918102031000000001638065144045605040_" class="st20" points="99.28,182.78 
			58.12,193.14 21.33,183.63 21.29,180.7 99.36,180.7 		"/><polygon id="arrow-sun-high1_00000155839911077962786220000013349429864604556161_" class="st21" points="85.69,180.7 
			61.2,188.55 33.38,182.44 33.34,180.7 85.82,180.7 		"/></g></g><g id="alpha_00000115501587067702686230000016159526433327245214_"><g><g id="alpha1_00000142860154618580250910000016605977482048309906_"><path class="st4" d="M240.42,328.95c-3.5,0-6.34-1.39-8.44-4.13c-2.01-2.62-3.04-6.11-3.04-10.36c0-4.9,1.15-8.93,3.42-11.98
				c2.37-3.18,5.56-4.8,9.48-4.8c2.69,0,4.88,0.82,6.53,2.45c1.03,1.02,2.09,2.6,3.19,4.8c0.56-1.85,1.02-3.66,1.38-5.42l0.24-1.2
				h7.7l-0.43,1.84c-0.87,3.73-2.6,8.18-5.16,13.21l0.23,0.55c0.2,0.44,0.71,1.54,1.52,3.25c0.5,1.07,1.08,2.33,1.75,3.8
				c0.99,2.26,1.79,4,2.41,5.19l1.12,2.19h-8.63l-0.41-0.85c-0.23-0.47-0.36-0.75-0.39-0.85l-1.1-2.54l-0.96-2.26
				c-1.15,2.08-2.33,3.62-3.55,4.7C245.42,328.14,243.12,328.95,240.42,328.95z M241.29,304.39c-0.38,0-1.55,0-2.71,2.23
				c-0.94,1.8-1.41,4.17-1.41,7.05c0,2.77,0.44,5,1.3,6.62c0.95,1.78,1.94,1.98,2.6,1.98c0.96,0,1.86-0.5,2.75-1.52
				c1.02-1.17,2.29-3.35,3.79-6.48l-0.94-2.13c-1.79-4.1-2.85-5.83-3.43-6.56C242.3,304.39,241.54,304.39,241.29,304.39z"/><path class="st2" d="M241.84,299.19c2.29,0,4.11,0.67,5.47,2.02s2.85,3.95,4.45,7.81c1.16-3.17,2.04-6.24,2.64-9.21h4.58
				c-0.88,3.78-2.66,8.28-5.35,13.49l0.5,1.19c0.22,0.48,0.73,1.58,1.54,3.31c0.5,1.06,1.08,2.32,1.74,3.78
				c1,2.27,1.81,4.02,2.44,5.25h-5.23c-0.2-0.42-0.32-0.66-0.35-0.75l-1.12-2.59l-1.02-2.39l-0.82-1.92l-0.4-0.92
				c-1.53,3.38-3.07,5.76-4.64,7.13c-1.57,1.37-3.52,2.05-5.86,2.05c-3.02,0-5.44-1.18-7.25-3.55c-1.82-2.36-2.73-5.51-2.73-9.44
				c0-4.59,1.04-8.29,3.12-11.09C235.64,300.58,238.4,299.19,241.84,299.19 M241.06,323.77c1.41,0,2.7-0.68,3.88-2.04
				c1.18-1.36,2.61-3.84,4.3-7.44l-1.22-2.76c-1.49-3.42-2.7-5.71-3.62-6.88s-1.96-1.75-3.12-1.75c-1.64,0-2.99,1.01-4.04,3.04
				c-1.05,2.02-1.58,4.6-1.58,7.74c0,3.04,0.49,5.48,1.48,7.33C238.13,322.85,239.44,323.77,241.06,323.77 M241.84,296.19
				c-4.36,0-8.05,1.87-10.68,5.4c-2.47,3.31-3.72,7.64-3.72,12.88c0,4.59,1.13,8.38,3.35,11.27c2.37,3.09,5.7,4.72,9.63,4.72
				c3.07,0,5.71-0.94,7.83-2.79c0.79-0.69,1.56-1.56,2.31-2.61l0.95,2.19c0.07,0.16,0.17,0.37,0.41,0.88l0.82,1.7h1.89h5.23h4.91
				l-2.24-4.37c-0.6-1.16-1.39-2.88-2.36-5.08c-0.69-1.51-1.27-2.78-1.77-3.85c-0.74-1.58-1.22-2.6-1.45-3.11
				c2.44-4.89,4.11-9.23,4.97-12.93l0.86-3.68h-3.78h-4.58h-2.46l-0.48,2.41c-0.12,0.61-0.26,1.23-0.41,1.86
				c-0.55-0.8-1.09-1.47-1.63-2.01C247.48,297.16,244.93,296.19,241.84,296.19L241.84,296.19z M241.06,320.77
				c-0.19,0-0.64,0-1.27-1.19c-0.75-1.4-1.13-3.39-1.13-5.92c0-2.63,0.42-4.77,1.24-6.35c0.34-0.65,0.85-1.42,1.38-1.42
				c0.26,0,0.62,0.43,0.77,0.61c0.43,0.54,1.41,2.07,3.23,6.23l0.67,1.51c-1.61,3.29-2.66,4.82-3.27,5.53
				C241.81,320.77,241.25,320.77,241.06,320.77L241.06,320.77z"/></g><path id="alpha2_00000062909452839271840280000014112604362314707082_" class="st25" d="M251.76,309.01
			c1.16-3.17,2.04-6.24,2.64-9.21h4.58c-0.88,3.78-2.66,8.28-5.35,13.49l0.5,1.19c0.22,0.48,0.73,1.58,1.54,3.31
			c0.5,1.06,1.08,2.32,1.74,3.78c1,2.27,1.81,4.02,2.44,5.25h-5.23c-0.2-0.42-0.32-0.66-0.35-0.75l-1.12-2.59l-1.02-2.39l-0.82-1.92
			l-0.4-0.92c-1.53,3.38-3.07,5.76-4.64,7.13c-1.57,1.37-3.52,2.05-5.86,2.05c-3.02,0-5.44-1.18-7.25-3.55
			c-1.82-2.36-2.73-5.51-2.73-9.44c0-4.59,1.04-8.29,3.12-11.09c2.08-2.79,4.84-4.19,8.27-4.19c2.29,0,4.11,0.67,5.47,2.02
			S250.16,305.15,251.76,309.01z M249.25,314.29l-1.22-2.76c-1.49-3.42-2.7-5.71-3.62-6.88s-1.96-1.75-3.12-1.75
			c-1.64,0-2.99,1.01-4.04,3.04c-1.05,2.02-1.58,4.6-1.58,7.74c0,3.04,0.49,5.48,1.48,7.33c0.99,1.85,2.29,2.78,3.92,2.78
			c1.41,0,2.7-0.68,3.88-2.04C246.12,320.37,247.56,317.89,249.25,314.29z"/></g></g><g id="graph1_00000007391703158928158150000013786674471270804913_"><line id="line-y" class="st26" x1="791.2" y1="233.4" x2="791.2" y2="105.94"/><line id="line-x" class="st26" x1="787.19" y1="229.4" x2="979.43" y2="229.4"/><line id="line-end-y" class="st26" x1="787.19" y1="107.02" x2="791.43" y2="107.02"/><line id="line-end-x" class="st26" x1="977.54" y1="233.08" x2="977.54" y2="228.84"/><path class="st27" d="M803.47,214.07c0,0,26.18-110.14,78.54-83.96"/><circle class="st28" cx="882.01" cy="129.91" r="4.76"/></g><g id="text"><path id="cta01box" class="st29" d="M591.57,517.1v68.41h418.84V517.1H591.57z"/><path id="cta-icon_00000016067702262133553320000014184406931271241655_" class="st4" d="M984.8,555.97
		c-1.67,6.36-7.41,10.8-13.97,10.8c-7.97,0-14.46-6.48-14.46-14.46c0-7.97,6.48-14.46,14.46-14.46h6.27l3.3,3.25l-3.32,3.17h-6.26
		c-4.43,0-8.03,3.6-8.03,8.03s3.6,8.03,8.03,8.03c3.64,0,6.83-2.46,7.76-5.99l1.04-3.97l2.24,4.02l3.91-2.17L984.8,555.97z"/><rect x="617.06" y="532.81" class="st30" width="455.58" height="52.7"/><text transform="matrix(1 0 0 1 617.0587 547.8145)" class="st31 st32 st33">Ändere die Albedo (</text><text transform="matrix(1 0 0 1 772.1759 547.8145)" class="st4 st32 st33">α)</text><text transform="matrix(1 0 0 1 789.0118 547.8145)" class="st31 st32 st33"> und beobachte  </text><text transform="matrix(1 0 0 1 617.0587 571.8145)" class="st31 st32 st33">die Energie und Temperatur!</text><rect x="219" y="70" class="st30" width="415.29" height="103.06"/><text id="text01" transform="matrix(1 0 0 1 218.9999 85.0004)"><tspan x="0" y="0" class="st32 st33">Energie kommt von der Sonne in Form von Licht. </tspan><tspan x="0" y="26" class="st32 st33">Ein Teil davon wird reflektiert - meist von Eis und </tspan><tspan x="0" y="52" class="st32 st33">Wolken - das nennt man Albedo.  </tspan><tspan x="0" y="78" class="st32 st33">Der Planet verliert Wärme in Form von Infrarotlicht.</tspan></text><rect x="187.84" y="24.91" class="st30" width="540.52" height="42.12"/><text id="title01" transform="matrix(1 0 0 1 249.9086 51.9088)" class="st32 st34">Die Strahlungsbilanz der Erde</text></g><g id="models"><g id="models1-active"><g><path d="M867.66,41.09v-12.1h-1.97v-1.59h5.83v1.59h-1.97v12.1h1.97v1.59h-5.83v-1.59H867.66z"/></g><path d="M868.62,51.23c-9.01,0-16.35-7.33-16.35-16.35c0-9.01,7.33-16.35,16.35-16.35c9.01,0,16.35,7.33,16.35,16.35
			C884.97,43.89,877.64,51.23,868.62,51.23z M868.62,20.51c-7.92,0-14.37,6.45-14.37,14.37c0,7.92,6.45,14.37,14.37,14.37
			c7.92,0,14.37-6.45,14.37-14.37C883,26.96,876.55,20.51,868.62,20.51z"/></g><g id="models2"><path d="M912.44,39.22v-8.47h-1.38v-1.12h4.08v1.12h-1.38v8.47h1.38v1.12h-4.08v-1.12H912.44z"/><path d="M917.95,39.22v-8.47h-1.38v-1.12h4.08v1.12h-1.38v8.47h1.38v1.12h-4.08v-1.12H917.95z"/></g><g id="models3"><path d="M961.09,39.22v-8.47h-1.38v-1.12h4.08v1.12h-1.38v8.47h1.38v1.12h-4.08v-1.12H961.09z"/><path d="M966.59,39.22v-8.47h-1.38v-1.12h4.08v1.12h-1.38v8.47h1.38v1.12h-4.08v-1.12H966.59z"/><path d="M972.1,39.22v-8.47h-1.38v-1.12h4.08v1.12h-1.38v8.47h1.38v1.12h-4.08v-1.12H972.1z"/></g></g><g id="mathmode-model01"><g id="T_00000081615362098505088140000008203927036626302633_"><g id="T2_00000052102691735939035260000009710507557349319868_"><polygon class="st4" points="409.85,327.99 409.85,297.55 397.77,297.55 397.77,290.94 429.76,290.94 429.76,297.55 
				417.68,297.55 417.68,327.99 			"/><path class="st23" d="M428.26,292.44v3.61h-12.08v30.44h-4.83v-30.44h-12.08v-3.61H428.26 M431.26,289.44h-3h-28.99h-3v3v3.61v3
				h3h9.08v27.44v3h3h4.83h3v-3v-27.44h9.08h3v-3v-3.61V289.44L431.26,289.44z"/></g><path id="T1_00000072983905766515596920000003457035219272358079_" class="st35" d="M411.35,326.49v-30.44h-12.08v-3.61h28.99
			v3.61h-12.08v30.44H411.35z"/></g><g id="L_00000013163357564556622470000002767921897223539390_"><g id="L2_00000064350142914096437630000014415705820209879456_"><polygon class="st21" points="59.51,93.78 59.51,53.95 67.74,53.95 67.74,86.87 84.31,86.87 84.31,93.78 			"/><path class="st19" d="M66.24,55.45v32.92h16.57v3.91h-21.8V55.45H66.24 M69.24,52.45h-3h-5.23h-3v3v36.83v3h3h21.8h3v-3v-3.91v-3
				h-3H69.24V55.45V52.45L69.24,52.45z"/></g><path id="L1_00000161629541966883255060000009043289853273408137_" class="st36" d="M61.01,92.28V55.45h5.23v32.92h16.57v3.91
			H61.01z"/></g><rect x="46.51" y="329.09" class="st30" width="28.63" height="40.27"/><text id="mathmode01_00000073711362652587587280000012500412479413058442_" transform="matrix(1 0 0 1 56.0776 344.0937)"><tspan x="0" y="0" class="st37 st32 st33">L</tspan><tspan x="-2.03" y="12" class="st37 st32 st33">—</tspan><tspan x="-0.19" y="24" class="st37 st32 st33">4</tspan></text><rect x="148.03" y="329.09" class="st30" width="28.63" height="60.63"/><text id="mathmode02_00000076598734551931071380000013900657753741816229_" transform="matrix(1 0 0 1 152.3608 344.0946)"><tspan x="0" y="0" class="st37 st32 st33">Lα</tspan><tspan x="0.24" y="12" class="st37 st32 st33 st38">–</tspan><tspan x="8.29" y="12" class="st37 st32 st33">–</tspan><tspan x="5.05" y="24" class="st37 st32 st33">4</tspan></text><g id="mathmode03_00000070101916860754005630000009525170948266878865_"><rect x="383.7" y="329.09" class="st30" width="60.24" height="28.95"/><text transform="matrix(1 0 0 1 389.7682 352.3434)" class="st37 st32 st33">T = kE</text><text transform="matrix(0.583 0 0 0.583 437.8639 350.0201)" class="st37 st32 st39"> </text></g><g id="mathmode04_00000129917185675377384000000011011931385837881518_"><rect x="540.85" y="329.09" class="st30" width="45.77" height="23.92"/><text transform="matrix(1 0 0 1 553.5514 352.3442)" class="st37 st32 st33">σT</text><text transform="matrix(0.583 0 0 0.583 573.9323 350.021)" class="st37 st32 st39"> </text><text transform="matrix(1 0 0 1 573.785 343.6505)" class="st37 st40 st41 st42">4</text></g><g id="mathmode05_00000022557600668045523320000000867778666016845984_"><text transform="matrix(1 0 0 1 112.2596 568.6807)" class="st37 st32 st33">E= </text><text transform="matrix(1 0 0 1 136.3509 568.6807)" class="st37 st32 st33 st43">——</text><text transform="matrix(1 0 0 1 169.4798 568.6807)" class="st37 st32 st33 st38">—</text><text transform="matrix(1 0 0 1 179.4442 568.6807)" class="st37 st32 st33 st43">—</text><text transform="matrix(1 0 0 1 196.0086 568.6807)" class="st37 st32 st33">— σ</text><text transform="matrix(0.8733 0 0 1 224.1234 568.6807)" class="st37 st32 st33">T</text><text transform="matrix(0.5091 0 0 0.583 233.2142 566.0205)" class="st37 st32 st44"> </text><text transform="matrix(1 0 0 1 237.3533 567.6807)" class="st37 st32 st33"> </text><rect x="79.88" y="542.4" class="st30" width="38.48" height="60.63"/><text id="mathmode02_00000051369646060896122110000003178005568625757592_" transform="matrix(1 0 0 1 94.1577 557.4009)"><tspan x="0" y="0" class="st37 st32 st33">d</tspan><tspan x="-4.78" y="12" class="st37 st32 st33 st38">–</tspan><tspan x="3.26" y="12" class="st37 st32 st33">– </tspan><tspan x="-2.95" y="24" class="st37 st32 st33">dt</tspan></text><text transform="matrix(1 0 0 1 49.2827 571.1697)" class="st37 st32 st45">E</text><rect x="128.52" y="541.75" class="st30" width="28.63" height="60.63"/><text id="mathmode01_00000158718043638758862870000015377790208005787033_" transform="matrix(1 0 0 1 138.0863 556.7524)"><tspan x="0" y="0" class="st37 st32 st33">L</tspan><tspan x="4.75" y="12" class="st37 st32 st33"> </tspan><tspan x="-0.19" y="24" class="st37 st32 st33">4</tspan></text><rect x="167.91" y="541.72" class="st30" width="28.63" height="60.63"/><text id="mathmode02_00000034803080919340758730000011789373277099570821_" transform="matrix(1 0 0 1 172.2355 556.7163)"><tspan x="0" y="0" class="st37 st32 st33">Lα</tspan><tspan x="5.05" y="24" class="st37 st32 st33">4</tspan></text><text transform="matrix(1 0 0 1 234.781 558.7173)" class="st37 st40 st41 st42">4</text></g><rect x="219.32" y="70.79" class="st30" width="547.14" height="190.09"/><text id="mathmode-text_00000111869906536780642900000002597524857501378720_" transform="matrix(1 0 0 1 219.3163 85.7912)"><tspan x="0" y="0" class="st32 st33">Der solare Emissionsgrad L ist die Energie, die pro Flächeneinheit des </tspan><tspan x="0" y="26" class="st32 st33">Erdquerschnitts auf die Erde trifft. Wohingegen L/4 die Energie pro </tspan><tspan x="0" y="52" class="st32 st33">Erdoberfläche ist. Die Albedo α ist der Anteil, der reflektiert wird.</tspan><tspan x="0" y="84" class="st32 st33">Die von einem warmen Körper (wie z.B. der Erde) bei der Temperatur </tspan><tspan x="0" y="110" class="st32 st33">T pro Oberflächeneinheit abgegebene Energie ergibt sich aus der  </tspan><tspan x="0" y="136" class="st32 st33">Stefan-Boltzmann-Gleichung.</tspan></text></g></svg>