<svg xmlns="http://www.w3.org/2000/svg" xmlns:xlink="http://www.w3.org/1999/xlink" version="1.1" id="model-1" x="0" y="0" viewBox="0 0 1024 600" xml:space="preserve"><defs id="defs53"><linearGradient id="linearGradient884"><stop style="stop-color:#fff37b;stop-opacity:1" offset="0" id="stop880"/><stop style="stop-color:#fff37b;stop-opacity:.285333" offset="1" id="stop882"/></linearGradient><linearGradient xlink:href="#linearGradient884" id="linearGradient886" x1="107.852" y1="155.132" x2="241.309" y2="370.115" gradientUnits="userSpaceOnUse"/><linearGradient xlink:href="#linearGradient884" id="linearGradient956" gradientUnits="userSpaceOnUse" x1="107.852" y1="155.132" x2="241.309" y2="370.115"/><linearGradient xlink:href="#linearGradient884" id="linearGradient958" gradientUnits="userSpaceOnUse" x1="107.852" y1="155.132" x2="241.309" y2="370.115"/><filter style="color-interpolation-filters:srgb" id="filter944" x="-.013" width="1.027" y="-.011" height="1.022"><feGaussianBlur stdDeviation="1.039" id="feGaussianBlur946"/></filter><filter style="color-interpolation-filters:srgb" id="filter952" x="-.011" width="1.023" y="-.013" height="1.025"><feGaussianBlur stdDeviation=".442" id="feGaussianBlur954"/></filter></defs><path id="sky" fill="#80D4F7" d="M0 0h1024v600H0z"/><ellipse id="ground" fill="#A17145" cx="512" cy="795.1" rx="774.7" ry="309"/><ellipse id="sun" fill="#FFF37B" cx="78.1" cy="89.8" rx="46.2" ry="42.2" style="stroke:#fff37b;stroke-opacity:.286275;-webkit-filter:url(#filter952);filter:url(#filter952)"/><g id="tree-2" fill="#1F6734"><path d="m96.3 508.7 10.1 20.8H86.1l10.2-20.8z" id="path13"/><path d="m96.6 514.3 13.1 26.8H83.5l13.1-26.8z" id="path15"/><path d="m96.6 522.3 14.1 29.1H82.4l14.2-29.1z" id="path17"/><path id="rect19" d="M93.8 550h5.5v9.2h-5.5z"/></g><g id="tree-1" fill="#1F6734"><path d="m145.5 493.9 10.1 20.8h-20.3l10.2-20.8z" id="path22"/><path d="m145.8 499.4 13.1 26.8h-26.1l13-26.8z" id="path24"/><path d="m145.8 507.4 14.1 29.1h-28.3l14.2-29.1z" id="path26"/><path id="rect28" d="M143 535.1h5.5v9.2H143z"/></g><path id="ocean" fill="#5085C5" d="m819 738.1 233.5-10.4L1085 598 884 478.7l-233.5 10.4L618 618.8l201 119.3z"/><path id="icesheet-1" fill="#FFF" d="M952.6 514.7 1056 581l-152 46.4 48.6-112.7z"/><g id="sunrays-in" style="stroke:url(#linearGradient886);opacity:1;-webkit-filter:url(#filter944);filter:url(#filter944)" fill="none" stroke="#FFF37B" stroke-width="3"><path id="sunray-1" style="stroke:url(#linearGradient958)" d="m96.164 170.134 80.656 223.074"/><path id="sunray-3" style="stroke:url(#linearGradient886)" d="m112.7 162.1 124.9 201.5"/><path id="sunray-2" style="stroke:url(#linearGradient956)" d="m130.043 153.248 161.388 173.843"/></g><path id="mountain-1" fill="#7B7070" d="m575.6 394.2 52.8 140.9H522.8l52.8-140.9z"/><path id="mountain-2" fill="#7B7070" d="m628.4 370.5 52.8 140.9H575.6l52.8-140.9z"/><path id="mountain-3" fill="#7B7070" d="m681.2 419.5 43.2 118.3H638l43.2-118.3z"/><path id="mountainice-1" fill="#FFF" d="m575.6 393.6 19 51.7h-38l19-51.7z"/><path id="mountainice-2" fill="#FFF" d="m628.4 370.5 19.7 52.7h-39.5l19.8-52.7z"/><path id="mountainice-3" fill="#FFF" d="m681.2 420.2 14.9 41.6h-29.9l15-41.6z"/><g id="co2"><circle fill="#385BA9" cx="507.4" cy="162.1" r="4.6" id="circle43"/><circle fill="#385BA9" cx="494.4" cy="162.1" r="4.6" id="circle45"/><circle fill="#ED1C24" cx="500.9" cy="162.1" r="6.5" id="circle47"/></g></svg>