<?xml version="1.0" encoding="UTF-8" standalone="no"?><svg xmlns:dc="http://purl.org/dc/elements/1.1/" xmlns:cc="http://creativecommons.org/ns#" xmlns:rdf="http://www.w3.org/1999/02/22-rdf-syntax-ns#" xmlns:svg="http://www.w3.org/2000/svg" xmlns="http://www.w3.org/2000/svg" xmlns:xlink="http://www.w3.org/1999/xlink" xmlns:sodipodi="http://sodipodi.sourceforge.net/DTD/sodipodi-0.dtd" xmlns:inkscape="http://www.inkscape.org/namespaces/inkscape" version="1.1" id="model-1" x="0px" y="0px" viewBox="0 0 1024 600" xml:space="preserve" sodipodi:docname="scenario.svg" inkscape:version="1.0.2 (e86c8708, 2021-01-15)"><metadata id="metadata55"><rdf:RDF><cc:Work rdf:about=""><dc:format>image/svg+xml</dc:format><dc:type rdf:resource="http://purl.org/dc/dcmitype/StillImage"/></cc:Work></rdf:RDF></metadata><defs id="defs53"><linearGradient inkscape:collect="always" id="linearGradient884"><stop style="stop-color:#fff37b;stop-opacity:1" offset="0" id="stop880"/><stop style="stop-color:#fff37b;stop-opacity:.285333" offset="1" id="stop882"/></linearGradient><linearGradient inkscape:collect="always" xlink:href="#linearGradient884" id="linearGradient886" x1="107.85229" y1="155.13217" x2="241.30873" y2="370.1153" gradientUnits="userSpaceOnUse"/><filter inkscape:collect="always" style="color-interpolation-filters:srgb" id="filter944" x="-0.013296" width="1.026592" y="-0.01093421" height="1.0218684"><feGaussianBlur inkscape:collect="always" stdDeviation="1.03875" id="feGaussianBlur946"/></filter><filter inkscape:collect="always" style="color-interpolation-filters:srgb" id="filter952" x="-0.011480519" width="1.022961" y="-0.01256872" height="1.0251374"><feGaussianBlur inkscape:collect="always" stdDeviation="0.44200001" id="feGaussianBlur954"/></filter><linearGradient inkscape:collect="always" xlink:href="#linearGradient884" id="linearGradient956" gradientUnits="userSpaceOnUse" x1="107.85229" y1="155.13217" x2="241.30873" y2="370.1153"/><linearGradient inkscape:collect="always" xlink:href="#linearGradient884" id="linearGradient958" gradientUnits="userSpaceOnUse" x1="107.85229" y1="155.13217" x2="241.30873" y2="370.1153"/></defs><sodipodi:namedview pagecolor="#ffffff" bordercolor="#666666" borderopacity="1" objecttolerance="10" gridtolerance="10" guidetolerance="10" inkscape:pageopacity="0" inkscape:pageshadow="2" inkscape:window-width="1680" inkscape:window-height="1005" id="namedview51" showgrid="false" inkscape:zoom="1.787917" inkscape:cx="381.83346" inkscape:cy="284.44127" inkscape:window-x="1920" inkscape:window-y="23" inkscape:window-maximized="1" inkscape:current-layer="sunrays-in"/><rect id="sky" fill="#80D4F7" width="1024" height="600"/><ellipse id="ground" fill="#A17145" cx="512" cy="795.1" rx="774.7" ry="309"/><ellipse id="sun" fill="#FFF37B" cx="78.1" cy="89.8" rx="46.2" ry="42.2" style="stroke:#fff37b;stroke-opacity:.286275;-webkit-filter:url(#filter952);filter:url(#filter952)"/><g id="tree-2"><path fill="#1F6734" d="M96.3,508.7l10.1,20.8H86.1L96.3,508.7z" id="path13"/><path fill="#1F6734" d="M96.6,514.3l13.1,26.8H83.5L96.6,514.3z" id="path15"/><path fill="#1F6734" d="M96.6,522.3l14.1,29.1H82.4L96.6,522.3z" id="path17"/><rect x="93.8" y="550" fill="#1F6734" width="5.5" height="9.2" id="rect19"/></g><g id="tree-1"><path fill="#1F6734" d="M145.5,493.9l10.1,20.8h-20.3L145.5,493.9z" id="path22"/><path fill="#1F6734" d="M145.8,499.4l13.1,26.8h-26.1L145.8,499.4z" id="path24"/><path fill="#1F6734" d="M145.8,507.4l14.1,29.1h-28.3L145.8,507.4z" id="path26"/><rect x="143" y="535.1" fill="#1F6734" width="5.5" height="9.2" id="rect28"/></g><path id="ocean" fill="#5085C5" d="M819,738.1l233.5-10.4L1085,598l-201-119.3l-233.5,10.4l-32.5,129.7L819,738.1z"/><path id="icesheet-1" fill="#FFFFFF" d="M952.6,514.7L1056,581L904,627.4L952.6,514.7z"/><g id="sunrays-in" style="stroke:url(#linearGradient886);opacity:1;-webkit-filter:url(#filter944);filter:url(#filter944)"><line id="sunray-1" fill="none" stroke="#FFF37B" stroke-width="3" x1="96.163933" y1="170.13377" x2="176.81952" y2="393.20828" style="stroke:url(#linearGradient958)"/><line id="sunray-3" fill="none" stroke="#FFF37B" stroke-width="3" x1="112.7" y1="162.1" x2="237.6" y2="363.6" style="stroke:url(#linearGradient886)"/><line id="sunray-2" fill="none" stroke="#FFF37B" stroke-width="3" x1="130.04337" y1="153.24791" x2="291.43112" y2="327.0914" style="stroke:url(#linearGradient956)"/></g><path id="mountain-1" fill="#7B7070" d="M575.6,394.2l52.8,140.9H522.8L575.6,394.2z"/><path id="mountain-2" fill="#7B7070" d="M628.4,370.5l52.8,140.9H575.6L628.4,370.5z"/><path id="mountain-3" fill="#7B7070" d="M681.2,419.5l43.2,118.3H638L681.2,419.5z"/><path id="mountainice-1" fill="#FFFFFF" d="M575.6,393.6l19,51.7h-38L575.6,393.6z"/><path id="mountainice-2" fill="#FFFFFF" d="M628.4,370.5l19.7,52.7h-39.5L628.4,370.5z"/><path id="mountainice-3" fill="#FFFFFF" d="M681.2,420.2l14.9,41.6h-29.9L681.2,420.2z"/><g id="co2"><circle fill="#385BA9" cx="507.4" cy="162.1" r="4.6" id="circle43"/><circle fill="#385BA9" cx="494.4" cy="162.1" r="4.6" id="circle45"/><circle fill="#ED1C24" cx="500.9" cy="162.1" r="6.5" id="circle47"/></g></svg>